
<svg xmlns="http://www.w3.org/2000/svg" version="1.1" xmlns:xlink="http://www.w3.org/1999/xlink" preserveAspectRatio="none" x="0px" y="0px" width="600px" height="600px" viewBox="0 0 600 600">
<defs/>

<g id="sun">
<g transform="matrix( 1, 0, 0, 1, 0,0) ">
<g>
<g>
<path fill="#ffffff" stroke="none" d="
M 423.8 421.75
Q 410.3017578125 435.2349609375 395.3 445.15
L 501 501 445.45 395.9
Q 436.1130859375 409.4369140625 423.8 421.75
M 204.7 445.15
Q 189.7712890625 435.234375 176.3 421.75 163.9603515625 409.434375 154.6 395.85
L 99.05 501 204.7 445.15
M 300 473
Q 281.6814453125 473 264.7 469.7
L 300.05 584.25 335.35 469.7
Q 318.3529296875 473 300 473
M 128.55 334.8
Q 125 317.144921875 125 298 125 281.1859375 127.75 265.5
L 15.8 300.05 128.55 334.8
M 266 126
Q 282.38828125 123 300 123 317.6283203125 123 334 126
L 300 15.8 266 126
M 176.3 174.25
Q 188.2546875 162.28359375 201.35 153.1
L 99.05 99.05 153.4 201.9
Q 163.1625 187.3748046875 176.3 174.25
M 475 298
Q 475 317.152734375 471.4 334.8
L 584.25 300.05 472.25 265.5
Q 475 281.1771484375 475 298
M 398.65 153.1
Q 411.8203125 162.28203125 423.8 174.25 436.91015625 187.373046875 446.65 201.9
L 501 99.05 398.65 153.1 Z"/>
</g>
</g>
</g>
</g>
</svg>
